<svg width="100" height="80" viewBox="0 0 100 80" fill="none" xmlns="http://www.w3.org/2000/svg">
<path d="M84.8971 17.5652C84.7297 17.2881 84.559 17.0284 84.386 16.7812C83.8101 14.5235 83.1957 12.2816 82.5098 9.93132C82.4831 9.8404 81.838 7.67738 80.0494 5.55626C79.4116 4.80005 78.7073 4.12226 77.8726 4.3079C77.3664 4.41842 77.0824 4.78319 76.8262 5.3238C76.4055 4.67486 75.9367 4.17398 75.2788 4.18323C74.7459 4.20065 74.2504 4.56868 73.2967 6.39954C72.8062 7.34139 72.5137 8.06658 72.204 8.8348C71.4189 10.7838 71.165 11.4192 71.1008 11.7524C69.3435 12.096 67.3631 12.6203 66.3022 14.2454C66.0852 14.578 65.9417 14.9003 65.8033 15.2112C65.5533 15.7741 65.3552 16.2189 64.7833 16.6136C64.4875 16.8166 64.2325 16.9087 63.9629 17.0056C63.6214 17.1281 63.2375 17.2761 62.8357 17.624C61.7615 16.9424 60.7341 16.1775 59.7844 15.3435C59.5367 15.1252 59.1538 15.1448 58.9312 15.387C58.708 15.6288 58.7281 16.0022 58.9758 16.2195C59.9552 17.0797 61.0138 17.8685 62.1198 18.5751C62.0467 18.72 61.9798 18.8724 61.9217 19.0346C60.6109 18.898 59.3046 18.6606 58.0362 18.322C57.7147 18.2376 57.3821 18.4211 57.2934 18.7352C57.2052 19.0499 57.3955 19.3738 57.717 19.4598C59.0016 19.8023 60.3235 20.0445 61.65 20.1899C61.6449 20.2324 61.6338 20.2688 61.6293 20.3119C61.4351 22.1891 62.0534 23.8773 62.5992 25.3673C63.0808 26.6827 63.5361 27.924 63.3754 29.0955C63.2805 29.7897 62.9597 30.505 62.4547 31.1944C61.9697 31.2265 61.4865 31.2493 61.0054 31.2532C59.3508 31.2706 57.8587 31.1154 56.2765 30.9559C54.5449 30.7811 52.6381 30.5901 50.2302 30.583C50.0628 30.3206 49.8887 30.0685 49.7073 29.8268C49.7068 29.824 49.7079 29.8213 49.7073 29.8186C49.3452 27.8233 48.6995 25.2966 46.9032 23.4488C44.4662 20.9433 40.6822 20.4338 37.3016 20.2661C36.2921 20.216 35.2765 20.1828 34.2592 20.1485C29.7893 19.9994 25.1666 19.8458 21.0438 18.2213C20.7938 18.1222 20.5438 18.0182 20.2927 17.9137C19.0588 17.3992 17.7848 16.8673 16.3729 16.9179C15.2825 16.956 14.1498 17.513 13.4874 18.3362C12.974 18.9743 12.7759 19.7256 12.9305 20.4524C12.9438 20.5156 12.9734 20.5695 13.0047 20.6223C11.6626 22.2571 11.6721 25.4449 13.1738 27.4821C15.2 30.2309 19.2776 30.0202 19.7368 29.9876C20.4912 29.9337 21.0197 29.7823 21.4443 29.6609C21.9494 29.5156 22.2825 29.4219 22.8193 29.5254C24.5638 29.8656 25.624 31.77 26.0236 32.487C27.624 35.361 27.4862 38.2379 27.3529 41.0204C27.2781 42.5846 27.2005 44.2026 27.441 45.7728C27.8077 48.1633 28.9293 50.4923 30.7402 52.6483C31.3579 53.5548 32.0705 54.4036 32.8669 55.1836C28.9942 55.439 25.2743 56.0455 21.791 56.9917C17.719 58.0975 14.6783 59.4351 13.0735 62.3718C12.8435 62.7921 10.886 66.5775 12.9066 70.0645C14.9619 73.6098 19.3486 73.7895 20.79 73.8482C20.9826 73.8563 21.208 73.8656 21.4524 73.8656C22.4072 73.8656 23.6388 73.7224 24.2103 72.7909C24.626 72.1142 24.5869 71.1261 24.1148 70.3878C23.4592 69.3638 22.3838 69.2075 21.3447 69.0551C20.5791 68.9435 19.7873 68.8281 19.1287 68.3577C18.4155 67.8481 18.3631 66.7217 18.7241 65.9698C19.2783 64.8156 20.3486 64.189 20.9373 63.9173C27.0997 61.0753 35.0143 60.9305 35.0936 60.9294C37.9948 60.8891 40.9524 60.9326 43.8887 61.0573C44.646 61.2789 45.3507 61.4705 45.9634 61.6344C51.4221 63.0924 56.0181 62.7325 58.229 62.5578C61.6391 62.2893 67.3473 61.8408 73.239 58.2623C79.2463 54.6141 82.1351 49.7191 83.3684 47.6286C89.6916 36.9137 88.8751 24.1414 84.8968 17.5658L84.8971 17.5652ZM76.612 54.2593L74.2041 51.6308C73.9815 51.3886 73.5998 51.3673 73.3509 51.5846C73.1026 51.8018 73.0808 52.1742 73.3029 52.417L75.7098 55.0433C74.784 55.811 73.7543 56.5618 72.6009 57.2624C72.0641 57.5885 71.5295 57.8793 70.9971 58.1531C70.9798 58.1139 70.9686 58.0725 70.9418 58.0361C70.1198 56.9396 69.4211 55.751 68.8665 54.5044C68.7337 54.2055 68.3771 54.0672 68.0713 54.1984C67.765 54.328 67.6243 54.6753 67.7572 54.9742C68.3381 56.2786 69.068 57.5226 69.9252 58.6747C68.1412 59.493 66.405 60.0515 64.7846 60.4375C64.2533 59.1298 63.7623 57.7911 63.3247 56.4562C63.2232 56.1464 62.8833 55.9727 62.5652 56.0745C62.2472 56.1736 62.0719 56.5051 62.1735 56.8155C62.5998 58.1172 63.0792 59.4216 63.5948 60.6994C61.4637 61.1202 59.5825 61.2688 58.1311 61.3826C55.827 61.5639 51.5374 61.9009 46.2828 60.4968C45.6595 60.3302 44.9391 60.1353 44.1651 59.9078L44.0172 59.8833C41.0328 59.7542 38.0239 59.7101 35.0854 59.751C35.0061 59.751 26.8576 59.8838 20.4211 62.852C19.6856 63.1912 18.3446 63.9817 17.6298 65.4707C17.0617 66.6543 17.1437 68.4018 18.4149 69.31C19.3139 69.9524 20.2984 70.0961 21.1661 70.2225C22.1644 70.3684 22.7459 70.4762 23.0902 71.013C23.3201 71.3723 23.357 71.8873 23.1739 72.1851C22.8257 72.753 21.4356 72.6947 20.8414 72.6702C19.4312 72.6125 15.6839 72.4595 13.9596 69.4843C12.2559 66.546 13.9423 63.2887 14.1404 62.9272C15.5433 60.3602 18.343 59.1527 22.1153 58.128C25.8446 57.1149 29.8559 56.5029 34.0394 56.3016C35.1287 56.8776 36.2672 57.3697 37.4396 57.7618C37.5043 57.783 37.5702 57.7933 37.6355 57.7933C37.8866 57.7933 38.1209 57.6398 38.2074 57.3948C38.3157 57.0867 38.1472 56.7508 37.8313 56.6457C36.8023 56.3022 35.7989 55.8791 34.8363 55.3843C34.804 55.3331 34.7638 55.2863 34.7152 55.246C33.5651 54.2894 32.5668 53.1962 31.7119 51.9484C30.0055 49.9123 28.9708 47.7759 28.6367 45.5983C28.4134 44.142 28.4849 42.6524 28.5608 41.0752C28.702 38.1315 28.8482 35.0876 27.0859 31.924C26.6127 31.0747 25.3555 28.8181 23.0569 28.3694C22.8108 28.321 22.5893 28.3014 22.385 28.3014C21.9012 28.3014 21.5106 28.413 21.1044 28.5295C20.697 28.646 20.2751 28.7669 19.6485 28.8115C19.2595 28.8398 15.7981 29.0211 14.1558 26.7934C12.8678 25.0469 12.9236 22.0401 14.2624 21.048C14.8868 20.5853 15.7395 20.8537 17.6101 21.5026C18.6603 21.8674 19.9684 22.3203 21.6302 22.733C23.3417 23.1588 24.0711 23.211 25.5237 23.315C26.6821 23.3978 28.2681 23.5121 31.2139 23.8779C37.9701 24.7174 41.3618 25.1388 43.5125 26.2968C44.5164 26.8368 47.0008 28.1821 48.7877 30.6016C48.4344 30.6114 48.0773 30.6217 47.7028 30.6402C46.3859 30.7045 44.426 30.9402 42.6191 32.2365C40.9215 33.4549 40.1135 35.4883 40.6548 37.181C41.0109 38.296 41.9936 39.1698 43.2821 39.5193C44.5717 39.8677 45.8747 39.6145 46.7693 38.8393C46.9316 38.6988 47.0806 38.5436 47.2291 38.3885C47.4171 38.1919 47.5951 38.0063 47.7888 37.8762C48.7575 37.2234 50.2888 37.7575 51.1275 38.0515L51.8624 38.3084C57.7682 40.3724 59.5504 40.9946 61.0159 41.3512C62.4087 41.691 63.8692 41.8608 65.3809 41.8608C66.3245 41.8608 67.2893 41.7944 68.2693 41.6616C68.5997 41.6169 68.8307 41.3191 68.7849 40.9963C68.738 40.674 68.4328 40.4448 68.1025 40.4938C65.7073 40.8177 63.4206 40.7219 61.3083 40.2068C59.9009 39.865 57.978 39.1926 52.2697 37.1983L51.5186 36.9359C50.5655 36.6033 48.5812 35.9102 47.1023 36.906C46.801 37.1085 46.5694 37.3508 46.3451 37.5849C46.2223 37.7128 46.1001 37.8424 45.9656 37.9578C45.3791 38.4674 44.4975 38.6264 43.6046 38.3841C42.7129 38.1424 42.0411 37.5615 41.8072 36.8304C41.3719 35.4704 42.2458 33.9678 43.3341 33.187C44.8613 32.0911 46.5026 31.8799 47.7615 31.8189C51.3435 31.6436 53.8971 31.9011 56.1515 32.1281C57.7686 32.2909 59.3066 32.4504 61.0136 32.4314C63.8462 32.4091 66.7425 31.9224 69.6208 30.9843C69.9372 30.8814 70.1085 30.5471 70.0025 30.2384C69.8964 29.9292 69.5527 29.762 69.2374 29.866C67.4774 30.4393 65.7128 30.8345 63.9634 31.0529C64.2792 30.4632 64.4891 29.8584 64.5722 29.2519C64.7709 27.7967 64.2686 26.4241 63.7363 24.9705C63.4868 24.29 63.2363 23.5974 63.056 22.887C63.3708 23.0117 63.7089 23.0803 64.0493 23.0803C64.4042 23.0803 64.7597 23.009 65.0895 22.8592C65.3925 22.7215 65.5225 22.3709 65.3819 22.0753C65.2407 21.7802 64.8814 21.6539 64.5783 21.79C64.0197 22.0431 63.2586 21.8368 62.9153 21.3381C62.8863 21.2962 62.8467 21.2684 62.8099 21.2363C62.8009 20.9706 62.8026 20.7028 62.8311 20.43C62.9192 19.5834 63.1743 18.9361 63.5699 18.5567C63.8277 18.309 64.0593 18.2262 64.3791 18.1108C64.6793 18.0025 65.0537 17.8685 65.4801 17.5745C66.3283 16.9893 66.638 16.2935 66.9115 15.6788C67.0365 15.3973 67.1548 15.1311 67.3205 14.8774C68.2324 13.4809 70.2173 13.1124 71.9684 12.7879C72.8869 12.6175 73.8774 12.5522 74.8328 12.5957C75.0946 12.6148 75.3362 12.4537 75.4283 12.2136C75.7184 11.4535 75.9919 10.7028 76.2396 9.98136C76.479 9.28395 76.7743 8.58275 77.06 7.90442C77.2458 7.46344 77.4311 7.023 77.6247 6.52812C77.7982 6.08332 78.0142 5.52964 78.1358 5.45778C78.1381 5.45669 78.368 5.42021 79.1141 6.3049C80.7358 8.22783 81.3395 10.2345 81.3451 10.2536C82.0382 12.6262 82.657 14.8883 83.2374 17.1678C83.2552 17.2364 83.2854 17.3017 83.3267 17.3599C83.5047 17.612 83.6821 17.8777 83.8546 18.1624C87.6593 24.4522 88.4143 36.7116 82.3194 47.0391C81.4522 48.5139 79.724 51.4316 76.6124 54.2593L76.612 54.2593ZM16.4149 18.0962C17.5527 18.0592 18.6531 18.5138 19.8166 18.9983C20.0749 19.1056 20.3322 19.2123 20.5895 19.3141C24.9103 21.0176 29.6413 21.1744 34.2167 21.3273C35.2273 21.3605 36.2363 21.3943 37.239 21.4444C40.3807 21.6001 43.8813 22.0563 46.0247 24.2607C47.0543 25.3196 47.6565 26.6735 48.0455 27.9966C46.4819 26.5555 44.8747 25.6849 44.0952 25.2651C41.7419 23.9983 38.2743 23.5676 31.3602 22.7085C28.388 22.3394 26.7832 22.2239 25.6113 22.1401C24.1861 22.0378 23.536 21.9909 21.9277 21.5913C20.3189 21.1917 19.041 20.7486 18.0137 20.392C16.3363 19.81 15.1387 19.4055 14.1047 19.8023C14.1477 19.4991 14.2934 19.2432 14.4373 19.0646C14.8821 18.5115 15.6767 18.1222 16.415 18.0961L16.4149 18.0962ZM76.0606 6.37146C76.127 6.48633 76.19 6.59468 76.2531 6.7041C76.1499 6.95508 76.0489 7.20715 75.9434 7.45757C75.6499 8.1539 75.3474 8.8736 75.0946 9.6081C74.8937 10.1906 74.6766 10.7939 74.4473 11.4063C73.7738 11.3949 73.0952 11.4357 72.4362 11.5222C72.603 11.0715 72.9105 10.3049 73.3285 9.26664C73.627 8.52568 73.9094 7.82608 74.3737 6.93437C74.9261 5.87383 75.2314 5.50956 75.3564 5.38984C75.4613 5.46388 75.6683 5.69472 76.0606 6.37145L76.0606 6.37146Z" fill="black"/>
<path d="M71.8144 20.8684C72.7786 20.8684 73.7128 20.4122 74.2865 19.6505C74.4835 19.3881 74.426 19.0195 74.1565 18.8263C73.8881 18.6335 73.5097 18.6901 73.3116 18.9526C72.9489 19.4344 72.3177 19.7251 71.7045 19.6854C71.0923 19.6478 70.5036 19.2863 70.2039 18.7631C70.0415 18.4794 69.6738 18.3776 69.3819 18.5355C69.09 18.694 68.9857 19.0533 69.1481 19.3375C69.6503 20.2156 70.6012 20.8003 71.6297 20.8623C71.6916 20.8667 71.753 20.8683 71.8144 20.8683L71.8144 20.8684Z" fill="black"/>
<path d="M71.5585 24.7135C71.3119 24.4952 70.9296 24.5132 70.7053 24.7532C70.4804 24.9944 70.4988 25.3674 70.7455 25.5862C71.7393 26.4671 72.7712 27.3322 73.8119 28.1575C73.9235 28.2463 74.0586 28.2893 74.1925 28.2893C74.3677 28.2893 74.5424 28.2152 74.6618 28.0715C74.8728 27.8189 74.8331 27.447 74.5736 27.2418C73.5502 26.4311 72.5362 25.5802 71.5586 24.7134L71.5585 24.7135Z" fill="black"/>
<path d="M76.7986 24.4195C75.3282 24.0776 73.8601 23.6534 72.4348 23.1613C72.1201 23.0524 71.7746 23.213 71.6636 23.5201C71.552 23.8271 71.7166 24.1641 72.0313 24.2725C73.4968 24.7793 75.0062 25.2143 76.5185 25.5666L76.6591 25.5829C76.9325 25.5829 77.1803 25.4011 77.2461 25.1305C77.3243 24.8131 77.1234 24.4951 76.7986 24.4195L76.7986 24.4195Z" fill="black"/>
</svg>
