<svg width="100" height="80" viewBox="0 0 100 80" fill="none" xmlns="http://www.w3.org/2000/svg">
<path d="M87.6057 13.3817C87.0515 11.3135 86.0008 9.70368 85.6559 9.17468C85.0382 8.22825 84.5499 7.48053 83.6682 6.73996C83.2106 6.35603 80.7675 4.45753 77.4557 4.87839C76.2877 5.02628 73.5232 5.57593 73.0768 7.47668C72.8128 8.60112 73.4144 9.9521 74.3915 10.426C74.963 10.7027 75.4367 10.5878 75.8965 10.4762C76.1387 10.4176 76.3882 10.3562 76.6951 10.3372C78.4339 10.2329 79.8586 11.6045 80.0159 11.7619C81.3284 13.0727 81.3815 15.0315 81.2961 16.0828C80.8669 21.422 73.4132 25.1888 69.5321 26.4349C67.5973 27.056 65.8166 27.306 64.4451 27.4477C60.1231 24.4087 54.4278 22.6597 49.2065 22.7842C41.0062 22.9661 35.3511 27.5804 30.8065 31.2886C23.8333 36.9789 20.2898 43.8076 18.5861 47.09C17.2518 49.6609 16.5096 51.768 15.9086 53.4717C15.6536 54.1955 15.4209 54.8557 15.2144 55.465C14.6062 56.3004 14.061 57.1749 13.5973 58.085C13.5225 58.2329 11.7641 61.748 12.027 65.2692C12.0577 65.681 12.1392 66.7742 12.9561 67.3239C13.1816 67.4757 13.5309 67.6202 14.0421 67.6202C14.315 67.6202 14.6341 67.5789 15.0052 67.4762C15.6632 67.2937 16.5202 66.8942 17.4394 66.3981C17.0482 66.8769 16.6023 67.3194 16.1453 67.5488C15.671 67.787 15.4053 67.907 15.3161 67.9466C15.2329 67.9684 15.1498 67.9879 15.0666 68.0075C14.537 68.133 13.9372 68.2748 13.4332 68.8138C13.037 69.2379 12.8807 69.671 12.7429 70.1146C12.6307 70.4768 12.2887 71.58 12.7686 72.7653C13.1519 73.7118 13.8595 74.2173 14.0922 74.3836C14.9382 74.9863 15.8964 75.1816 16.7819 75.1816C17.8656 75.1816 18.8405 74.8892 19.3684 74.6956C19.5955 74.6119 19.8165 74.5131 20.0341 74.4065C20.038 74.4098 20.0425 74.4143 20.047 74.4177C20.5754 74.8362 21.2138 74.9975 21.8628 74.9975C22.9125 74.9975 23.989 74.5745 24.6687 74.1325C25.1882 73.7943 25.5649 73.4629 26.768 71.8892C28.1994 70.0165 29.0978 68.8401 29.4494 67.9266C29.6592 67.8982 29.8768 67.8742 30.1107 67.8614C30.9695 67.8128 31.5197 67.906 32.0058 67.9875C32.5326 68.0756 33.0052 68.1515 33.6051 68.0053C34.196 69.1175 34.6001 70.3083 34.7898 71.5572C34.8328 71.8373 35.0733 72.0377 35.3484 72.0377L35.4343 72.031C35.7429 71.9841 35.9555 71.6956 35.9087 71.387C35.7044 70.0471 35.2753 68.7681 34.6514 67.57C34.8395 67.4612 35.0186 67.3429 35.1854 67.2145C36.0364 68.1141 36.8673 69.0567 37.6542 70.0169C37.7658 70.1542 37.9287 70.2245 38.0922 70.2245C38.2183 70.2245 38.345 70.1827 38.4505 70.0962C38.6927 69.8986 38.7278 69.5421 38.5303 69.2999C37.7256 68.3177 36.8763 67.354 36.0063 66.4343C36.7585 65.5699 37.1742 64.6284 37.3238 64.2452C37.6782 63.3339 37.7736 62.518 37.8573 61.7987C37.9695 60.8356 38.0509 60.1397 38.6932 59.5822C38.8757 59.4242 39.0409 59.3288 39.2993 59.1977C39.46 59.1168 43.2597 57.2117 46.0041 56.9705C47.9717 56.7981 49.2485 57.5208 50.604 58.4392C51.4935 59.302 52.3434 59.8622 52.849 60.1942C56.0961 62.3277 59.5097 62.8678 62.7145 63.134C63.0856 63.1646 63.459 63.1881 63.834 63.211C65.3015 63.3008 66.6878 63.3862 67.9394 63.9297C70.0275 64.836 71.3378 66.9068 72.0694 68.4844C72.2703 68.918 72.325 69.274 72.2083 69.3907C72.1693 69.4297 71.9589 69.4219 71.8188 69.4169C71.4874 69.4035 71.0381 69.3884 70.6341 69.6831C70.2357 69.9744 69.984 70.5112 69.9254 71.1959C69.8333 72.2724 70.2184 73.4275 70.9064 74.1391C71.5711 74.8255 72.5186 75.1184 73.5197 75.1179C74.3328 75.1179 75.1799 74.9215 75.9416 74.5889C76.0828 74.6012 76.2251 74.609 76.3696 74.609C77.556 74.609 78.8189 74.1971 79.7759 73.5414C81.5973 72.2931 82.0733 70.2407 82.33 69.138C83.065 65.9689 82.2028 63.2574 81.9193 62.3663C80.0359 56.4421 75.5537 47.6649 73.4053 43.6006C73.2424 41.1196 72.6771 38.6904 71.8177 36.556C71.3373 35.3629 70.734 34.2129 70.0192 33.1269C74.5013 32.2731 78.4522 30.5454 81.7742 27.9857C83.9723 26.2922 85.6709 24.3757 86.557 22.5896C87.0911 21.5115 88.7512 17.6587 87.6056 13.3814L87.6057 13.3817ZM68.9585 32.166C68.7654 32.1972 68.6014 32.3272 68.5266 32.5086C68.4518 32.6899 68.4764 32.897 68.5919 33.056C69.4786 34.2781 70.2096 35.5984 70.766 36.979C71.7538 39.4339 72.6443 43.3373 72.2008 47.2843C70.8101 44.5544 69.7092 42.5254 69.4318 42.0176C69.2816 41.7436 68.9385 41.6415 68.6639 41.7921C68.3899 41.9417 68.2889 42.2854 68.4385 42.56C68.7303 43.0929 75.6036 55.7146 77.9897 63.2186C78.2498 64.0361 79.0411 66.525 78.3759 69.3916C78.1387 70.4111 77.7425 72.1176 76.2843 73.1176C74.9216 74.0517 72.71 74.3782 71.7179 73.3519C71.1827 72.7995 70.9969 71.9201 71.051 71.2928C71.0828 70.9145 71.1989 70.6706 71.2988 70.598C71.3864 70.5333 71.5773 70.54 71.7748 70.5484C72.1331 70.5623 72.618 70.5791 73.0064 70.1918C73.349 69.8492 73.642 69.1923 73.0935 68.0094C71.926 65.4915 70.2989 63.7219 68.3876 62.8928C66.9529 62.27 65.401 62.1752 63.9004 62.0831C63.5349 62.0602 63.1689 62.0384 62.8061 62.0077C59.7503 61.7544 56.5031 61.2449 53.4686 59.2505C52.5573 58.6511 50.4223 57.2482 49.2169 54.549C48.6415 53.2616 48.3502 51.8676 48.3502 50.4039C48.3502 50.0914 48.0969 49.838 47.7844 49.838C47.4719 49.838 47.2185 50.0908 47.2185 50.4039C47.2185 52.0277 47.5433 53.5769 48.1834 55.0099C48.3737 55.4362 48.5857 55.8296 48.8095 56.1985C47.9752 55.9027 47.0422 55.7437 45.9026 55.8436C42.9936 56.0986 39.2091 57.9747 38.7866 58.1873C38.5221 58.3212 38.2604 58.4635 37.9725 58.7085C37.9312 58.0835 37.8313 57.463 37.6689 56.8631C37.5874 56.5612 37.2755 56.3826 36.9753 56.4646C36.6734 56.5461 36.4953 56.8569 36.5768 57.1583C36.8692 58.2381 36.9401 59.3954 36.7822 60.5043C36.7654 60.6226 36.7956 60.7325 36.8452 60.8318C36.7978 61.1047 36.7638 61.3832 36.7308 61.6667C36.651 62.3503 36.5684 63.0573 36.2665 63.8335C36.2185 63.9574 36.1348 64.1538 36.0182 64.386C35.6136 63.9334 35.2928 63.4061 35.0924 62.833C34.9892 62.5378 34.6683 62.3832 34.372 62.4853C34.0768 62.5886 33.9217 62.9111 34.0249 63.2063C34.3101 64.0227 34.7877 64.7689 35.401 65.3799C34.9925 65.924 34.444 66.4664 33.7224 66.775C33.1326 67.0278 32.7983 66.9708 32.1912 66.8698C31.6733 66.7839 31.0288 66.6768 30.0466 66.7303C28.334 66.8252 27.2034 67.333 26.2949 67.7409C26.0996 67.8285 25.9176 67.9089 25.7396 67.9826C25.9857 67.4948 26.1219 67.1723 26.1397 67.1288C27.508 63.7995 30.306 59.8776 34.4573 55.4719C34.6716 55.2448 34.661 54.8871 34.4333 54.6728C34.2068 54.4591 33.8479 54.4697 33.6336 54.6968C29.3875 59.2035 26.5142 63.2419 25.0935 66.6991C25.0784 66.7353 23.5539 70.3759 20.6722 72.6751C20.1544 73.088 19.584 73.4105 18.9769 73.6338C18.1862 73.9239 16.1901 74.4904 14.7476 73.4625C14.5635 73.3313 14.0752 72.9825 13.8157 72.3414C13.4876 71.5305 13.7309 70.7454 13.8224 70.4491C13.9469 70.0473 14.044 69.8157 14.2583 69.5869C14.5289 69.2973 14.8805 69.2141 15.3258 69.1087C15.4329 69.083 15.5401 69.0579 15.6461 69.0294L15.7198 69.0043C15.7198 69.0043 16.0066 68.8838 16.6517 68.5595C18.2912 67.7364 19.5445 65.2577 19.5975 65.1527L19.6215 65.098L25.621 49.0751C25.7309 48.7822 25.5819 48.4563 25.2895 48.3469C24.9982 48.237 24.6712 48.3848 24.5612 48.6784L18.6862 64.3698C17.0858 65.3486 15.6171 66.1309 14.7018 66.3854C14.1198 66.5461 13.7442 66.4903 13.5863 66.3848C13.2632 66.1672 13.1845 65.5952 13.1538 65.1845C12.915 61.9842 14.5885 58.6298 14.6047 58.5981C15.2459 57.3391 16.0433 56.1432 16.9747 55.0433C17.1767 54.8045 17.1466 54.4479 16.9083 54.2459C16.8893 54.2303 16.8664 54.2247 16.8463 54.2119C16.8915 54.088 16.9339 53.9669 16.9791 53.8374C17.5941 52.0919 18.2916 50.1131 19.5901 47.6114C21.2581 44.3971 24.7291 37.708 31.5216 32.1657C31.7984 31.9397 32.0796 31.7104 32.3653 31.4788C33.0221 32.1702 33.5584 32.9972 33.9139 33.8811C34.0026 34.102 34.2147 34.236 34.439 34.236C34.5093 34.236 34.5807 34.2226 34.6499 34.1947C34.9396 34.078 35.0802 33.7488 34.9636 33.4586C34.5668 32.472 33.9725 31.5502 33.2476 30.7701C34.2961 29.9364 35.41 29.0944 36.5958 28.2958L37.9893 31.1904C38.0864 31.3929 38.2889 31.5107 38.4993 31.5107C38.5819 31.5107 38.665 31.4928 38.7443 31.4549C39.0255 31.3193 39.1444 30.9816 39.0088 30.6998L37.5529 27.6741C38.7348 26.9319 39.9859 26.2438 41.3269 25.6674C41.8292 26.7087 42.198 27.8064 42.4078 28.9447C42.4581 29.217 42.6958 29.4079 42.9636 29.4079L43.0669 29.3984C43.3738 29.342 43.5769 29.0468 43.5206 28.7393C43.2968 27.5278 42.9084 26.3588 42.3805 25.2482C44.4531 24.4747 46.7209 23.9703 49.2321 23.9145C49.39 23.9111 49.5474 23.9095 49.7058 23.9095C54.6444 23.9095 59.9397 25.6053 63.962 28.4909C64.0742 28.5713 64.2109 28.607 64.3476 28.5941C65.8007 28.4502 67.7422 28.1974 69.8789 27.5115C74.3142 26.0874 81.9492 22.097 82.4252 16.1734C82.5998 14.0221 82.0284 12.1711 80.8169 10.9614C80.4993 10.645 78.8207 9.07798 76.626 9.20812C76.2186 9.23379 75.8922 9.31303 75.6299 9.37665C75.2298 9.47486 75.0819 9.50332 74.8866 9.4079C74.3883 9.16627 74.0378 8.33759 74.1796 7.73547C74.4123 6.74607 76.0987 6.1909 77.5997 6.00047C80.4362 5.6383 82.5479 7.27447 82.9419 7.60533C83.6958 8.2387 84.1216 8.89049 84.7097 9.79233C85.0306 10.284 86.0072 11.78 86.5144 13.674C87.5574 17.5675 86.0351 21.0976 85.5435 22.087C84.7321 23.722 83.1483 25.4989 81.083 27.0899C77.6946 29.7003 73.6165 31.408 68.9586 32.1663L68.9585 32.166ZM80.8385 62.7088C81.0986 63.5263 81.8899 66.0152 81.2252 68.8818C80.9881 69.9013 80.5919 71.6078 79.1337 72.6078C78.7548 72.8673 78.3083 73.0727 77.8429 73.2228C78.9121 72.0213 79.2721 70.5308 79.4774 69.6463C80.2134 66.4772 79.3512 63.7658 79.0678 62.8746C77.7636 58.7748 75.215 53.3082 73.0566 48.9818C73.253 48.0309 73.373 47.0638 73.4227 46.0906C75.724 50.5532 79.2614 57.7481 80.8384 62.7092L80.8385 62.7088ZM21.1299 73.7412C21.2125 73.681 21.2974 73.6235 21.3777 73.5593C22.9647 72.2931 24.1506 70.6928 24.9436 69.4036C25.5948 69.2942 26.1668 69.0387 26.7577 68.773C27.1366 68.6028 27.5406 68.4243 27.9977 68.2686C27.5356 69.0163 26.7806 70.0074 25.8677 71.2016C24.7332 72.686 24.4241 72.9404 24.0507 73.1837C23.3113 73.6642 22.0211 74.081 21.13 73.7412L21.1299 73.7412Z" fill="#ADC6D4"/>
</svg>
