<svg width="100" height="80" viewBox="0 0 100 80" fill="none" xmlns="http://www.w3.org/2000/svg">
<path d="M87.7972 60.6758C87.1694 59.1652 85.382 58.6713 84.0343 58.6936C83.4221 58.7076 82.8217 58.7985 82.2407 58.8856C81.5426 58.9911 80.8841 59.0887 80.2257 59.0619C78.4177 58.9832 76.7564 57.9336 75.1504 56.9185C74.9088 56.7656 74.6683 56.6133 74.4278 56.4654C72.2454 55.1155 69.8932 53.9982 67.4311 53.1395C68.0739 50.0625 68.3211 46.5547 68.1666 42.7004L71.9148 40.9817C72.777 40.586 73.6681 40.1764 74.5867 39.9532C76.0783 39.591 77.6793 39.7211 79.0928 40.3204C79.2011 40.3667 79.311 40.4153 79.4204 40.4644C80.0426 40.7439 80.7536 41.0603 81.5304 40.9415C82.6649 40.7702 83.5638 39.6178 83.5348 38.3739C83.512 37.3633 82.931 36.3376 81.9813 35.6306C81.1582 35.0179 80.1956 34.6998 79.2764 34.4476C75.3807 33.3773 71.22 33.2004 67.2083 33.9308C66.9694 32.5659 66.7568 31.5954 66.6809 31.2494C66.4382 30.1384 66.172 28.9291 65.8372 27.7008C66.1994 27.6037 66.5554 27.491 66.8991 27.3705C67.6988 27.0915 68.4533 26.827 69.1871 26.9419C69.4952 26.9877 69.7686 26.7829 69.8155 26.4832C69.8623 26.183 69.6564 25.9017 69.3568 25.8549C68.3484 25.7009 67.4282 26.02 66.5365 26.3326C66.1894 26.4537 65.8579 26.5597 65.5287 26.6462C65.4584 26.4174 65.3836 26.1908 65.3077 25.9626C65.796 25.8264 66.2379 25.5976 66.6687 25.3744C67.1196 25.14 67.546 24.919 67.9868 24.8259C68.2837 24.7628 68.474 24.4715 68.4109 24.1741C68.3479 23.8772 68.0599 23.6863 67.7591 23.75C67.1721 23.8738 66.6587 24.1406 66.1626 24.3984C65.7429 24.616 65.3417 24.8175 64.9343 24.9179C64.4684 23.7142 63.9003 22.5491 63.1738 21.5034C62.9014 20.8013 62.647 20.0731 62.4003 19.3684C61.6341 17.1748 60.8412 14.9069 59.3792 13.0095C58.6431 12.0581 57.9612 12.1005 57.6225 12.2138C57.2954 12.3209 57.0711 12.5536 56.8942 12.7679C55.8892 13.9849 55.3614 15.4722 55.0236 16.7316C53.3975 16.5223 51.1961 16.5419 49.0259 17.5128C47.9595 16.4224 46.7838 15.4549 45.5276 14.6329C45.0327 14.3086 44.4858 14.0229 43.8636 14.1033C43.2085 14.1909 42.6304 14.6898 42.2776 15.4732C41.8094 16.5106 41.7905 17.6368 41.8117 18.701C41.8714 21.7618 42.2252 24.8327 42.863 27.8277L42.9082 27.9566C42.9172 28.1993 42.935 28.4398 42.9551 28.6798C42.9244 28.6776 42.8954 28.667 42.8636 28.6698L39.0036 29.0107C38.7006 29.0375 38.4774 29.3042 38.5041 29.6067C38.5292 29.893 38.7692 30.1084 39.0516 30.1084L39.1007 30.1061L42.9607 29.7652C43.0003 29.7618 43.0332 29.744 43.0701 29.7328C43.0963 29.9281 43.1253 30.1218 43.1549 30.3148C41.9981 30.6318 40.8847 31.0944 39.8469 31.696C39.5835 31.8478 39.4942 32.1848 39.6465 32.4471C39.7487 32.6234 39.9334 32.7217 40.1231 32.7217C40.2163 32.7217 40.3117 32.6982 40.3982 32.6474C41.3201 32.1139 42.3061 31.701 43.3306 31.4097C43.5405 32.6753 43.738 33.9074 43.7352 35.1943C42.2341 36.4928 40.0795 37.8801 37.2258 38.543C35.5841 38.9236 33.8915 39.0229 32.1906 38.8365C31.8262 38.1713 30.7732 36.6111 28.8001 36.3789C27.4334 36.2177 25.6226 36.7048 24.8809 38.1552C24.305 39.2786 24.5015 40.6195 25.4635 42.1391C26.3787 43.5838 27.6872 44.1821 28.0668 44.3311C32.3537 46.0152 36.0691 46.3144 36.7164 46.3545C36.1913 47.0855 35.679 47.9701 35.1968 49.0721C32.9568 48.9259 30.7392 48.422 28.6461 47.5581C25.9725 46.4548 23.8704 44.8762 22.5668 42.9939C21.0428 40.7925 20.6087 38.0665 21.434 35.8807C21.5143 35.6675 21.6064 35.4526 21.6985 35.2361C22.093 34.3131 22.5406 33.2663 22.1812 32.1893C21.9563 31.5135 21.4318 30.98 20.7046 30.6864C19.8358 30.336 18.7906 30.3812 17.9786 30.8058C16.8168 31.4141 15.9429 32.6607 15.4518 34.4107C14.372 38.2483 15.2615 42.6551 17.8301 46.1997C20.6905 50.1473 24.7988 52.145 27.7413 53.1254C29.5136 53.7153 31.4349 54.1276 33.5248 54.3787C33.522 54.3966 33.5181 54.4133 33.5153 54.4306C31.4801 55.4502 28.7307 55.8213 24.6503 56.3726L23.9751 56.4642C21.8963 56.7437 21.1185 56.8486 19.3278 57.2281C16.6838 57.7884 14.2519 59.4558 12.6559 61.8028C12.4176 62.1527 12.1593 62.5779 12.0527 63.074C11.9087 63.7426 12.0622 64.4462 12.4851 65.0556C12.9846 65.776 13.82 66.3006 14.6643 66.4245C15.7675 66.5857 16.8077 66.2704 17.8156 65.9641C18.0488 65.8932 18.2815 65.8223 18.5142 65.7582C21.8614 64.838 25.7625 65.6142 29.8921 66.4367C30.8837 66.6343 31.8944 66.8357 32.9245 67.0204C35.9251 67.5578 39.0947 67.6633 42.3637 67.3413C42.4094 67.3536 42.4557 67.3642 42.5043 67.3642C42.5562 67.3642 42.6103 67.3569 42.6628 67.3413C42.7141 67.3257 42.7643 67.3067 42.8157 67.2911C43.074 67.2626 43.3313 67.2375 43.5902 67.204C46.2375 67.7872 48.5478 67.8251 49.3129 67.838C49.5641 67.8424 49.8537 67.8463 50.1762 67.8463C51.2655 67.8463 52.7309 67.7928 54.3759 67.4769C55.328 67.6047 56.3001 67.3419 57.2951 67.04C57.7862 66.8904 58.299 66.7414 58.8224 66.5969C58.8464 66.6002 58.8692 66.6069 58.8938 66.6069C58.973 66.6069 59.0551 66.5896 59.131 66.5528C59.1818 66.5282 59.2297 66.4976 59.28 66.4724C61.1801 65.9708 63.2481 65.569 65.314 65.569H65.3748C66.9948 65.5751 68.6449 65.8274 70.2419 66.0712C71.329 66.2375 72.4534 66.4094 73.5751 66.5065C76.4305 66.7531 79.5165 66.5422 83.0098 65.8631C84.1833 65.6354 85.5232 65.3229 86.5712 64.4909C87.6215 63.6549 88.3804 62.0769 87.7972 60.6756L87.7972 60.6758ZM85.8864 63.6283C85.0332 64.3063 83.8932 64.5697 82.8 64.7823C79.4072 65.4414 76.4206 65.6473 73.6694 65.4096C72.5841 65.3158 71.4774 65.1467 70.4077 64.9832C68.7716 64.7327 67.0802 64.4749 65.3787 64.4682H65.3134C64.1488 64.4682 62.992 64.5898 61.8642 64.7801C63.4663 63.4492 64.7781 61.7578 65.6174 59.8665C65.7402 59.5892 65.6152 59.2638 65.3379 59.1411C65.0594 59.0178 64.7357 59.1439 64.6124 59.4207C63.4723 61.9888 61.3903 64.1639 58.8831 65.4374C58.2235 65.6137 57.5846 65.8007 56.9741 65.9865C56.0735 66.2605 55.2024 66.4976 54.4507 66.3754C54.386 66.3654 54.3201 66.366 54.2565 66.3788C52.1996 66.7845 50.4044 66.756 49.3312 66.737C48.7285 66.727 47.1309 66.7008 45.1816 66.386C46.8574 65.6243 48.4384 64.6405 49.8395 63.4659C50.0722 63.2706 50.1029 62.9235 49.9076 62.6908C49.7123 62.4592 49.3663 62.428 49.1325 62.6227C47.2212 64.2254 44.9578 65.4603 42.5756 66.2109C39.2938 66.5624 36.1152 66.4737 33.118 65.9369C32.0952 65.7538 31.0912 65.5535 30.1063 65.3576C25.8463 64.5083 21.8223 63.7069 18.2213 64.6974C17.9797 64.7639 17.7375 64.837 17.4953 64.9106C16.5617 65.1936 15.6778 65.4614 14.824 65.3353C14.2788 65.2555 13.7152 64.8989 13.3882 64.4274C13.2135 64.1751 13.026 63.7756 13.1276 63.304C13.194 62.9932 13.377 62.6958 13.5645 62.4201C15.0025 60.3051 17.1862 58.8045 19.5545 58.303C21.3057 57.9319 22.0718 57.8286 24.121 57.5524L24.7967 57.4614C29.1606 56.8716 32.0435 56.4815 34.2789 55.2706C34.4323 55.1874 34.5373 55.0362 34.5613 54.8632C34.8676 52.6768 35.6673 50.7734 36.097 49.7505C36.7231 48.2599 37.3972 47.2019 38.0903 46.3699C38.3509 46.3733 38.6103 46.3766 38.8832 46.3805C39.7069 46.3928 40.6054 46.4057 41.5662 46.4057C43.2002 46.4057 45.0144 46.3683 46.9468 46.2237C47.2498 46.2014 47.4769 45.9375 47.4546 45.6345C47.4323 45.3314 47.1756 45.0987 46.8653 45.1266C43.8446 45.3521 41.2163 45.3141 38.8999 45.2807C38.1577 45.2701 37.4685 45.26 36.8369 45.26C36.7984 45.2583 32.9045 45.0502 28.4663 43.3063C28.1655 43.188 27.127 42.7126 26.3905 41.5496C25.6511 40.3822 25.4714 39.4084 25.8575 38.6561C26.3944 37.6065 27.8285 37.3699 28.6695 37.4709C30.4988 37.6857 31.3147 39.5434 31.323 39.5624C31.3994 39.7421 31.5657 39.8683 31.7594 39.8934C33.6868 40.14 35.6092 40.0479 37.4731 39.6144C41.3034 38.7248 43.9742 36.6199 45.5395 35.0111C45.751 34.7934 45.7465 34.4452 45.5289 34.2332C45.3258 34.0351 45.0133 34.0345 44.8001 34.2103C44.732 33.1595 44.5663 32.1511 44.4017 31.1567C44.203 29.9575 44.0155 28.8247 43.9993 27.6433C43.9976 27.5172 43.9524 27.3983 43.8765 27.3046C43.2923 24.4703 42.9675 21.5696 42.9106 18.6778C42.8922 17.7392 42.905 16.7526 43.2794 15.9234C43.4697 15.5004 43.7426 15.227 44.0077 15.1913C44.2728 15.1572 44.6065 15.3431 44.924 15.5512C46.0484 16.2867 47.0993 17.1528 48.0663 18.1176C47.4865 18.4385 46.9491 18.8403 46.491 19.3146C46.2806 19.5328 46.2862 19.881 46.5049 20.0925C46.6115 20.1958 46.7493 20.2465 46.8866 20.2465C47.0306 20.2465 47.1746 20.1902 47.2823 20.0786C47.8336 19.5077 48.5167 19.0534 49.256 18.7644C49.3871 18.713 49.4831 18.6148 49.5423 18.4982C51.5305 17.6288 53.5507 17.6349 55.0244 17.8436C55.0802 17.8855 55.1438 17.9184 55.2153 17.9374L57.6031 18.5668L57.7437 18.5853C57.987 18.5853 58.2097 18.4223 58.275 18.1757C58.3526 17.8821 58.1773 17.5813 57.8833 17.5038L56.0808 17.0289C56.3995 15.833 56.8621 14.5306 57.7415 13.4659C57.7795 13.4196 57.8955 13.279 57.9631 13.2572C58.0328 13.2388 58.2382 13.3314 58.5072 13.6796C59.8604 15.4352 60.5897 17.5212 61.3614 19.7293C61.6181 20.4637 61.8838 21.2232 62.1717 21.9621L62.2342 22.0787C64.1449 24.7997 64.9558 28.5055 65.6064 31.4838C65.6901 31.8683 65.9462 33.038 66.218 34.6668C66.2425 34.8141 66.3257 34.9447 66.449 35.0296C66.5718 35.1138 66.7258 35.1451 66.8703 35.1149C70.8859 34.2968 75.0752 34.4336 78.9853 35.5072C79.8 35.7316 80.6477 36.0083 81.3246 36.5123C82.0048 37.0195 82.42 37.7238 82.4351 38.399C82.4518 39.0971 81.9619 39.7639 81.3659 39.8538C80.9022 39.9225 80.4022 39.6987 79.8709 39.4604C79.7542 39.4085 79.6382 39.3566 79.5227 39.3075C77.8927 38.6167 76.0478 38.466 74.3274 38.8845C73.3051 39.1323 72.3648 39.5642 71.4562 39.9811L67.891 41.6161C67.7537 40.5809 67.5991 39.5464 67.4099 38.5235C67.3541 38.225 67.0673 38.0257 66.7687 38.0832C66.4702 38.1385 66.2732 38.4258 66.3285 38.7244C66.627 40.3344 66.8619 41.975 67.0249 43.6011C67.0327 43.6815 67.0612 43.7529 67.0991 43.8187C67.1722 47.3539 66.8893 50.5655 66.2537 53.3807C66.1912 53.657 66.348 53.9343 66.6164 54.0236C69.1683 54.8752 71.6018 56.0107 73.8503 57.4009C74.0869 57.5476 74.3246 57.6972 74.5629 57.8484C76.2912 58.9411 78.0779 60.0706 80.1794 60.161C80.944 60.1928 81.6867 60.0823 82.4054 59.9735C82.9774 59.8876 83.517 59.8066 84.0594 59.7944C85.0695 59.7609 86.3663 60.1007 86.7826 61.0985C87.1509 61.9869 86.5962 63.0651 85.8864 63.6286L85.8864 63.6283ZM16.5093 34.7098C16.7933 33.698 17.367 32.3688 18.4876 31.7818C19.0121 31.5066 19.7208 31.4787 20.2917 31.7081C20.5908 31.8292 20.9803 32.0714 21.1366 32.539C21.3632 33.2193 21.0339 33.9899 20.6857 34.8057C20.5869 35.0368 20.4893 35.2667 20.4033 35.4938C19.4519 38.0128 19.934 41.1278 21.6606 43.6226C23.1053 45.7091 25.314 47.3765 28.2242 48.5781C30.3117 49.4391 32.5166 49.9603 34.7482 50.1439C34.4184 50.9704 34.0288 52.0591 33.7409 53.3008C31.6912 53.0597 29.8146 52.6579 28.0892 52.0832C24.1461 50.769 20.8191 48.4509 18.7209 45.5553C16.347 42.2802 15.5206 38.226 16.5095 34.7099L16.5093 34.7098Z" fill="#ADC6D4"/>
<path d="M50.5815 26.0458C49.5636 27.0352 47.9052 27.2891 46.6383 26.6496C46.3671 26.5128 46.0362 26.6211 45.8995 26.8923C45.7628 27.1635 45.871 27.4944 46.1422 27.6311C46.7616 27.9442 47.4519 28.0954 48.1434 28.0954C49.3203 28.0954 50.5022 27.6579 51.3488 26.8343C51.5664 26.6228 51.5709 26.274 51.3594 26.0564C51.1473 25.8393 50.7991 25.8332 50.5815 26.0458L50.5815 26.0458Z" fill="#ADC6D4"/>
<path d="M61.2572 24.5158C61.4263 24.2641 61.3593 23.9221 61.1071 23.753C60.8549 23.5828 60.5134 23.6509 60.3443 23.9031C59.6836 24.888 58.2684 25.2893 57.1897 24.7993C56.9107 24.6715 56.5859 24.7965 56.4615 25.0722C56.3359 25.349 56.4581 25.6749 56.7344 25.8004C57.1959 26.0097 57.6925 26.1096 58.1881 26.1096C59.3851 26.1107 60.5771 25.5309 61.2572 24.5159L61.2572 24.5158Z" fill="#ADC6D4"/>
<path d="M56.7201 29.3815C56.2982 29.5176 55.7826 29.6482 55.5466 29.4434C55.4629 29.3703 55.3942 29.2347 55.3434 29.1236C55.2363 28.8898 55.1526 28.6443 55.0951 28.3954L55.0946 28.3921C55.0265 28.0963 54.7302 27.9105 54.4355 27.9791C54.1398 28.0466 53.955 28.3424 54.0226 28.6382L54.0231 28.6409C54.1487 29.1901 54.1286 29.6125 53.964 29.896C53.8825 30.036 53.7173 30.1527 53.5527 30.1867C53.4857 30.199 53.3914 30.2057 53.3222 30.1538C53.0784 29.9713 52.7341 30.0215 52.5527 30.2648C52.3708 30.5081 52.4205 30.853 52.6638 31.0344C52.8942 31.2062 53.1716 31.2955 53.4657 31.2955C53.5661 31.2955 53.6693 31.2855 53.7731 31.2637C54.2475 31.1672 54.6744 30.8625 54.9154 30.4484L54.9562 30.3748C55.6788 30.8714 56.6359 30.5651 57.0572 30.4283C57.3462 30.3351 57.5053 30.0249 57.4121 29.7358C57.3194 29.4479 57.0092 29.2905 56.7201 29.3815L56.7201 29.3815Z" fill="#ADC6D4"/>
</svg>
