<svg width="100" height="80" viewBox="0 0 100 80" fill="none" xmlns="http://www.w3.org/2000/svg">
<path d="M70.8499 4.29022C67.4012 1.60322 62.3593 1.23779 58.861 3.41967C57.1652 4.4777 55.6379 6.55082 56.2908 8.6021C56.5508 9.41907 57.2617 10.2544 58.2639 10.2778C58.9609 10.2828 59.5145 9.91956 60.005 9.58809L60.1278 9.50605C61.7221 8.44077 64.0162 8.28563 65.4598 8.68407C65.5703 8.71476 68.1629 9.45974 69.0034 11.8381C69.5982 13.5199 68.9649 15.0919 68.5458 16.1316C67.942 17.6299 67.0291 18.5871 65.9715 19.6958C64.9034 20.8169 64.1629 21.3576 63.5095 21.8354C62.9777 22.2249 62.4744 22.5921 61.8957 23.1892C61.144 23.9654 60.5173 24.88 60.0139 25.9213C59.6317 25.6579 59.2377 25.4023 58.8253 25.1646C56.9995 22.8889 54.2355 21.2187 50.8236 20.3309C50.0965 20.1417 49.3515 19.9816 48.631 19.8275C46.7722 19.4285 45.0166 19.0513 43.4291 18.202C42.14 17.5117 41.0418 16.5518 39.8799 15.5357C38.6667 14.4749 37.4123 13.3778 35.9279 12.6278C35.5959 12.4599 35.2499 12.3075 34.9039 12.1552C33.9173 11.721 32.9848 11.3109 32.4062 10.5469C31.9084 9.88951 31.6847 8.96603 31.4693 8.07374C31.1384 6.706 30.7968 5.29246 29.4781 4.57431C28.8124 4.21214 28.0066 4.14686 27.2091 4.39296C26.2287 4.69486 25.3648 5.41863 24.8983 6.32824C24.2476 7.59721 24.1589 9.15081 24.6198 11.2172C25.4809 15.0811 27.5534 18.6904 30.4558 21.3824C30.6712 21.5822 30.8916 21.7775 31.1126 21.9733C31.8783 22.653 32.6015 23.2948 33.1103 24.0983C33.8324 25.2401 34.0629 26.6045 34.3068 28.0486C34.3575 28.3488 34.4083 28.6485 34.463 28.9448C35.2052 32.9425 36.9323 36.8573 39.3347 39.9961C38.7103 43.312 39.0607 47.1351 39.371 50.5178C39.4502 51.3794 39.5273 52.221 39.587 53.029C40.0021 58.6852 40.7834 64.3682 41.909 69.9204C42.2873 71.7842 42.7097 73.5867 43.7148 75.1447C44.8605 76.9192 46.6445 77.9995 48.4084 77.9995C48.4675 77.9995 48.5261 77.9984 48.5853 77.9962C49.6963 77.951 50.7951 77.3823 51.5244 76.475C52.155 75.691 52.415 74.7663 52.2571 73.8717C52.1048 73.0101 51.6249 72.3165 51.1611 71.6457C51.0261 71.4504 50.891 71.2562 50.766 71.0581C50.0395 69.908 49.6187 68.5716 49.5094 67.0721C50.2287 67.7462 51.0445 68.2747 51.9473 68.6491C53.0037 69.0866 54.1359 69.3199 55.3486 69.2909C55.9736 70.5186 56.7487 71.6882 58.0289 72.2529C58.7449 72.5682 59.4742 72.5793 60.0295 72.2819C60.1065 72.2406 60.174 72.1909 60.2421 72.1413C60.909 73.749 61.8504 75.5268 63.7711 76.5675C64.1874 76.7924 65.3732 77.356 66.8057 77.356C67.347 77.356 67.9234 77.2751 68.5071 77.0653C69.9401 76.5508 70.7588 75.7902 70.9401 74.8053C71.1237 73.8109 70.5735 72.9693 70.3285 72.6536C69.8804 72.076 69.4033 71.8578 68.9825 71.6653C68.8765 71.6168 68.7699 71.5682 68.6655 71.513C67.6945 70.999 67.5584 69.5264 67.5478 68.3015C67.5428 67.6565 67.5188 66.7854 67.4886 65.7123C67.444 64.0945 67.3882 62.0471 67.3631 59.6431C67.7984 58.6102 68.1962 57.56 68.5852 56.5181C69.5684 53.8837 70.9155 50.276 70.7152 45.3613C70.4194 38.0984 67.4986 33.3451 65.0913 30.6256C65.0852 30.6189 65.0774 30.6099 65.0712 30.6027C65.2319 29.9213 65.4619 29.279 65.7654 28.6814C66.7794 26.682 68.338 25.567 69.9876 24.3878C71.9351 22.9955 73.949 21.5558 75.0239 18.596C75.5529 17.1401 75.6232 15.9375 75.6494 15.4855C75.9044 11.086 74.0663 6.79582 70.8497 4.29025L70.8499 4.29022ZM74.6077 15.4252C74.5664 16.125 74.4654 17.0775 74.0425 18.2411C73.0782 20.8979 71.2807 22.1819 69.3795 23.5418C67.6997 24.7427 65.9637 25.9838 64.8343 28.2115C63.9041 30.0458 63.5726 32.2221 63.8488 34.6814C63.879 34.947 64.1039 35.1434 64.365 35.1434L64.4242 35.1406C64.7099 35.1083 64.9158 34.8504 64.8829 34.5647C64.7796 33.6479 64.7724 32.7796 64.8505 31.9576C66.4342 33.9057 68.1395 36.7583 69.0446 40.6657L66.4799 41.4101C66.2043 41.4899 66.0452 41.7784 66.125 42.0547C66.1909 42.2824 66.399 42.4302 66.6245 42.4302C66.673 42.4302 66.7216 42.4235 66.7696 42.4096L69.2567 41.688C69.4609 42.7829 69.5993 43.9565 69.659 45.2065L66.8889 45.4224C66.6021 45.4447 66.3883 45.6953 66.4107 45.9821C66.4319 46.2545 66.6595 46.4621 66.9291 46.4621L66.9698 46.4604L69.6902 46.2483C69.6947 47.3806 69.6132 48.4386 69.4754 49.4275C68.7745 49.2422 68.0552 49.1367 67.3287 49.1211C67.0586 49.1094 66.8036 49.3427 66.7974 49.63C66.7913 49.9174 67.0195 50.1557 67.3063 50.1618C67.9838 50.1764 68.6534 50.2796 69.3046 50.4598C68.8794 52.7383 68.1802 54.6194 67.6059 56.1568C67.5205 56.3856 67.4335 56.615 67.3475 56.8443C67.3503 55.3332 67.3676 53.7165 67.4095 52.0018C67.4167 51.7144 67.1891 51.4755 66.9017 51.4688C66.636 51.4772 66.3754 51.6893 66.3693 51.9767C66.227 57.8494 66.3581 62.5994 66.4452 65.7434C66.4748 66.8075 66.4988 67.6719 66.5038 68.3119C66.5166 69.8265 66.7175 71.6635 68.1751 72.4346C68.2973 72.4999 68.4217 72.5569 68.5456 72.6138C68.9028 72.7773 69.2114 72.9185 69.5032 73.294C69.6271 73.4536 70.0238 74.0217 69.9134 74.6188C69.804 75.2131 69.2113 75.7075 68.1516 76.0881C66.4335 76.7064 64.7415 75.9123 64.2638 75.6539C62.6192 74.7627 61.7866 73.1656 61.1895 71.7203C59.1867 66.8716 58.5004 60.9542 58.2777 56.8432C58.262 56.5558 58.0109 56.3226 57.7297 56.3516C57.4423 56.3666 57.2224 56.6122 57.238 56.899C57.4501 60.813 58.0779 66.3393 59.8363 71.1121C59.7431 71.2171 59.6444 71.3069 59.5355 71.3655C59.1488 71.5714 58.6444 71.3906 58.4451 71.3019C57.4898 70.8806 56.8541 69.9408 56.3286 68.9274C56.3286 68.8515 56.3163 68.7745 56.2811 68.7014C55.9313 67.9788 55.6779 67.2132 55.5278 66.4242C55.4742 66.1423 55.2025 65.9565 54.9195 66.0101C54.6377 66.0637 54.4519 66.336 54.5055 66.6184C54.6104 67.1708 54.7661 67.7115 54.9603 68.2384C54.0379 68.2049 53.1584 68.0269 52.3426 67.6887C51.222 67.2244 50.2566 66.4789 49.4626 65.4838C49.4207 64.4989 49.4776 63.5167 49.6144 62.5403C49.6322 62.528 49.6534 62.5224 49.6696 62.5073C49.976 62.2317 50.4168 62.0949 50.8839 62.1351C51.3493 62.1731 51.7639 62.3801 52.0206 62.7015C52.1233 62.8299 52.2745 62.8974 52.4274 62.8974C52.5413 62.8974 52.6562 62.8606 52.7516 62.7836C52.9765 62.6044 53.0128 62.2769 52.8337 62.0525C52.3984 61.5079 51.7193 61.1602 50.9698 61.0983C50.5764 61.0654 50.1925 61.1178 49.8387 61.2378C50.4832 58.1669 51.8375 55.1579 53.2962 52.2852L53.3732 52.1334C54.5624 49.7936 55.7918 47.3746 55.5668 44.7183C55.5423 44.4309 55.29 44.211 55.0043 44.2434C54.718 44.2674 54.506 44.5191 54.5294 44.8054C54.7292 47.1669 53.5679 49.4521 52.4446 51.6619L52.3676 51.8137C50.1064 56.2663 48.0913 61.0503 48.4457 65.9777C48.3966 68.1244 48.8748 70.0223 49.8816 71.6156C50.0144 71.8254 50.1572 72.0324 50.3001 72.2389C50.7192 72.8449 51.1148 73.4163 51.2275 74.0542C51.333 74.6485 51.1489 75.2774 50.7091 75.8237C50.1729 76.4906 49.3414 76.9242 48.5378 76.9577C46.8029 77.028 45.3564 75.7774 44.5847 74.5821C43.6773 73.1764 43.2817 71.4778 42.924 69.7155C41.8068 64.2061 41.0323 58.5665 40.6199 52.9541C40.5601 52.1399 40.4826 51.2922 40.4028 50.4245C40.0948 47.068 39.7499 43.27 40.3799 40.0707C40.4033 40.0294 40.4257 39.987 40.4374 39.9384C40.7962 38.4669 42.0372 34.7777 45.8018 32.3167C49.2175 30.0846 52.7582 30.195 54.1227 30.3457C54.4045 30.3764 54.6656 30.1722 54.6974 29.8859C54.7287 29.6002 54.5233 29.3429 54.237 29.3111C52.4062 29.1091 48.7979 29.1152 45.2326 31.4455C41.8213 33.6754 40.3281 36.83 39.7031 38.7341C37.6383 35.8363 36.1466 32.3357 35.4821 28.7564C35.4279 28.4651 35.3783 28.1716 35.3286 27.8769C35.0786 26.3948 34.8197 24.8619 33.986 23.5438C33.3984 22.6147 32.5853 21.8937 31.799 21.1961C31.5841 21.0058 31.3693 20.8149 31.1595 20.6202C28.41 18.0705 26.4469 14.6515 25.6316 10.9919C25.227 9.17549 25.2867 7.84521 25.8202 6.80392C26.1562 6.14879 26.804 5.60638 27.5116 5.38875C27.6919 5.33295 27.9157 5.28663 28.159 5.28663C28.4179 5.28663 28.6997 5.33909 28.9754 5.4892C29.8889 5.98697 30.15 7.06734 30.4531 8.31906C30.6941 9.31571 30.943 10.3459 31.5719 11.1762C32.3141 12.1561 33.4151 12.6411 34.4804 13.1092C34.8102 13.2543 35.1388 13.3983 35.4541 13.5579C36.8219 14.2487 37.972 15.2549 39.1907 16.3201C40.3453 17.3296 41.54 18.3743 42.934 19.1209C44.6511 20.0394 46.5613 20.4495 48.4083 20.8463C49.1181 20.9986 49.8524 21.1566 50.5573 21.3396C53.7871 22.18 56.3843 23.7536 58.0672 25.8903C58.1091 25.9433 58.161 25.9874 58.219 26.0209C58.6978 26.2926 59.1493 26.5929 59.5873 26.9026C59.2665 27.7441 59.0159 28.6559 58.8401 29.638C58.7893 29.9204 58.978 30.191 59.2603 30.2418C59.5455 30.2931 59.8139 30.1034 59.8647 29.821C60.3078 27.3456 61.2413 25.359 62.6392 23.9148C63.156 23.3813 63.603 23.0548 64.1202 22.677C64.8083 22.1737 65.589 21.6039 66.7212 20.4159C67.8524 19.2295 68.829 18.2049 69.5075 16.5225C69.9567 15.4092 70.7079 13.5459 69.9819 11.4929C68.9629 8.60889 65.8669 7.71889 65.7347 7.68261C64.1153 7.23618 61.4876 7.34611 59.5477 8.64131L59.4199 8.72725C59.0237 8.99455 58.651 9.27189 58.286 9.2384C57.8206 9.2278 57.4272 8.7518 57.2793 8.28695C56.7949 6.76523 58.0444 5.1558 59.4093 4.30366C62.5504 2.34438 67.0912 2.6848 70.2079 5.11226C73.161 7.40855 74.8451 11.3605 74.6074 15.4243L74.6077 15.4252Z" fill="black"/>
<path d="M56.5971 58.0715H54.0336C53.7462 58.0715 53.5129 58.3042 53.5129 58.5922C53.5129 58.8796 53.7462 59.1128 54.0336 59.1128H56.5971C56.8845 59.1128 57.1178 58.8801 57.1178 58.5922C57.1172 58.3042 56.8845 58.0715 56.5971 58.0715Z" fill="black"/>
<path d="M56.2327 60.3072C55.4213 59.9891 54.5708 59.7787 53.7054 59.6805C53.4208 59.6515 53.1624 59.854 53.1301 60.1392C53.0977 60.4249 53.3031 60.6822 53.5882 60.7151C54.3639 60.8027 55.1256 60.9908 55.8528 61.2754C55.9153 61.3005 55.9794 61.3116 56.0425 61.3116C56.2506 61.3116 56.4471 61.1861 56.5274 60.9807C56.6318 60.7134 56.5006 60.4115 56.2328 60.3072L56.2327 60.3072Z" fill="black"/>
</svg>
