<svg width="100" height="80" viewBox="0 0 100 80" fill="none" xmlns="http://www.w3.org/2000/svg">
<path d="M87.9671 27.4672V27.4667C87.8388 26.5387 87.206 25.6731 86.3176 25.2094C85.5447 24.8059 84.701 24.7797 84.0017 25.1335C83.3756 25.4527 82.9749 25.9784 82.5888 26.4862C82.3293 26.8271 82.0837 27.1497 81.788 27.3818C81.307 27.7596 80.6139 27.9532 79.7283 27.956H79.7076C78.0943 27.956 76.5586 27.4114 74.933 26.8344C74.5207 26.6882 74.1099 26.5425 73.6976 26.4064C69.596 25.0476 65.6768 24.8294 62.365 25.7719C59.4671 26.5972 56.9637 28.3957 55.432 30.7379C52.086 29.7758 48.634 29.9589 45.9047 31.2574C44.4298 31.9594 43.4003 32.8903 42.4923 33.7111C41.2127 34.8685 40.1078 35.868 38.0453 36.085C36.2841 36.2714 34.7546 35.9756 33.5034 35.2044C31.9806 34.2652 31.5341 33.0018 30.9694 31.4031C30.7194 30.6955 30.461 29.9661 30.0872 29.1882C30.7211 27.1475 30.9756 25.0477 30.8444 22.9438C30.7724 21.7999 30.3852 21.0778 29.6926 20.7971C29.0118 20.522 28.3422 20.8116 27.8683 21.1107C27.75 20.6107 27.5692 20.1297 27.3259 19.6749C27.1898 19.4198 26.9883 19.1051 26.639 18.9394C26.2199 18.7379 25.6965 18.8105 25.274 19.1252C24.9615 19.3596 24.7584 19.6788 24.5949 19.9349L22.755 22.8249C22.6144 22.811 22.4743 22.7942 22.3326 22.7926C21.7372 22.7965 21.2076 22.8885 20.6529 22.999C19.8577 23.1581 18.9565 23.3372 17.5519 23.2183C17.3214 23.1988 17.1328 23.1759 16.9704 23.1558C16.5993 23.1106 16.308 23.0794 15.9648 23.1346L15.4353 21.0325C15.3638 20.7479 15.0753 20.576 14.7907 20.6475C14.5067 20.7189 14.3337 21.0079 14.4057 21.292L14.9637 23.5086C14.7712 23.6235 14.5915 23.7563 14.4269 23.9048C14.0117 23.1263 13.524 22.3863 12.9643 21.7033C12.7785 21.4768 12.4437 21.4427 12.2171 21.6291C11.9905 21.8149 11.9571 22.1492 12.1429 22.3763C12.7472 23.1146 13.264 23.9237 13.6842 24.7803C13.1161 25.6302 12.8041 26.581 12.6412 27.0806C11.7645 29.7715 10.8236 38.6403 16.9196 47.2477C17.5798 48.1802 18.3103 49.0703 19.0898 49.9213C19.0831 49.9749 19.0797 50.0206 19.0702 50.0809C18.8822 51.2812 18.3269 52.1568 17.789 53.0051L17.717 53.1189C17.1729 53.9777 16.9246 54.3689 16.4832 54.6283C16.3431 54.7104 16.1919 54.7768 16.0407 54.8443C15.6567 55.0156 15.222 55.2092 14.9095 55.6121C14.2862 56.4151 14.6751 57.4441 14.8096 57.7421C15.0836 58.3621 15.5987 58.8275 16.3425 59.1255C16.3598 59.1322 16.3771 59.1367 16.3944 59.1434C16.5026 59.529 16.6907 59.885 16.9546 60.1713C17.617 60.8906 18.5367 61.1774 19.4339 61.1774C19.9758 61.1774 20.5093 61.0725 20.9735 60.8961C22.2268 60.4196 23.2095 59.472 24.0851 58.5189C24.887 57.6455 25.6715 56.6991 26.4215 55.6986C33.7078 59.7773 41.2487 60.3057 43.7587 60.4814C45.1789 60.5802 46.6945 60.6751 48.1799 60.646C49.9628 60.7521 51.7854 60.6767 53.6498 60.5835L70.1741 59.7537C71.2896 59.6979 72.4452 59.6405 73.5541 59.7498L73.8984 59.7872C74.5429 59.8603 75.2087 59.9362 75.8855 59.751C77.3537 59.3525 78.3565 57.7582 78.169 56.1215C78.1227 55.7192 78.0044 55.3269 77.8353 54.9502C77.8928 54.847 77.9396 54.7449 77.9787 54.6455C78.5445 53.2147 77.9112 51.5647 77.0323 50.5647C75.5115 48.8354 73.3063 49.0161 73.2137 49.024C72.5145 49.0881 71.8677 49.3108 71.2427 49.5256C70.7365 49.6997 70.2589 49.8644 69.7705 49.943C67.669 50.2834 65.8297 49.3722 65.1365 48.9642C65.1349 48.9631 65.1332 48.962 65.1315 48.9609C65.6544 47.4375 65.9117 45.8655 65.8815 44.2539C65.8614 43.1696 65.5277 37.5753 60.9451 33.6546C61.5656 32.8058 62.3664 32.0949 63.2827 31.5826C65.0238 30.6083 67.2324 30.2556 69.5037 30.5876C70.4936 30.7327 71.492 31.0034 72.4574 31.2645C72.8999 31.3851 73.3419 31.5045 73.7866 31.6139C76.1945 32.2071 78.6588 32.5062 81.1532 32.4822C82.5756 32.4716 84.2213 32.3549 85.6453 31.5648C86.9807 30.8226 88.2162 29.2685 87.9668 27.467L87.9671 27.4672ZM74.0409 30.5817C73.6045 30.474 73.1697 30.3562 72.735 30.2385C71.7395 29.9684 70.7105 29.6894 69.6575 29.5353C67.1586 29.1682 64.7099 29.5672 62.7646 30.6536C61.557 31.3289 60.5246 32.3054 59.7802 33.4774C59.721 33.57 59.7026 33.6743 59.7054 33.777C59.4588 34.0901 59.1781 34.3736 58.8617 34.6141C58.6279 34.791 58.5815 35.1236 58.759 35.3574C58.8633 35.4952 59.0218 35.5678 59.1825 35.5678C59.2941 35.5678 59.4063 35.5326 59.5023 35.4601C59.8343 35.209 60.1278 34.9126 60.3979 34.5946C64.4916 38.2117 64.8008 43.2793 64.8192 44.2714C64.8694 46.9198 64.0904 49.4617 62.5241 51.8373C61.5626 51.2245 60.7908 50.2977 60.3734 49.2374C60.2657 48.9645 59.9571 48.8317 59.6847 48.9377C59.4119 49.0449 59.2779 49.3529 59.3851 49.6263C59.9504 51.0633 61.0592 52.2965 62.4275 53.0086C62.5056 53.0494 62.5899 53.0689 62.6725 53.0689C62.6942 53.0689 62.7154 53.0628 62.7372 53.06C62.9398 53.1476 63.1423 53.2358 63.3477 53.3161C65.865 54.3066 67.9174 54.4869 69.6234 53.8669C69.8779 53.7748 70.1256 53.6632 70.3729 53.5511C70.5799 53.4573 70.7869 53.3636 71.0001 53.2832C72.3494 52.7759 73.9052 52.892 75.1647 53.5935C76.2478 54.1967 76.9945 55.2112 77.1134 56.2413C77.2384 57.3317 76.5481 58.4685 75.6067 58.7246C75.1234 58.8546 74.586 58.7944 74.0162 58.7302L73.6569 58.6911C72.4682 58.5739 71.274 58.6342 70.1144 58.6917L53.5958 59.5209C51.761 59.613 49.972 59.6872 48.2013 59.5834C46.7101 59.6102 45.285 59.5215 43.8313 59.4199C41.396 59.2492 34.1091 58.7291 27.0713 54.8329C27.8626 53.8502 28.4937 52.7286 28.8921 51.5349C28.9848 51.2565 28.8352 50.9557 28.5573 50.8631C28.276 50.7693 27.9781 50.9205 27.8854 51.1979C27.4591 52.4725 26.7532 53.6672 25.8413 54.6549C25.7899 54.7101 25.7542 54.7738 25.7314 54.8407C24.954 55.8926 24.1382 56.8881 23.3028 57.7977C22.5154 58.6549 21.6426 59.5031 20.5958 59.901C19.7247 60.233 18.4574 60.2336 17.7348 59.449C17.4117 59.0985 17.2755 58.536 17.3877 58.016C17.4396 57.7777 17.5897 57.3502 18.0199 57.1689C18.1728 57.1042 18.3576 57.0673 18.5534 57.0277C18.8163 56.9747 19.1148 56.915 19.4011 56.7732C20.1092 56.4217 20.4853 55.723 20.7856 55.0194C21.1494 54.1667 21.4742 53.2504 21.7582 52.2917C21.7711 52.2671 21.7872 52.2454 21.7962 52.2186C22.2348 50.8787 22.4011 49.4296 22.2766 48.0271C22.251 47.7353 21.9898 47.5193 21.7013 47.545C21.4089 47.5707 21.1929 47.8285 21.2192 48.1203C21.2884 48.901 21.246 49.695 21.1187 50.4746C19.8832 49.2916 18.7599 48.007 17.7862 46.632C12.2566 38.8252 12.8034 30.6363 13.5367 27.8049C13.6132 27.8925 13.6891 27.9807 13.7811 28.0583C14.1734 28.3892 14.6439 28.5655 15.1143 28.5655C15.2371 28.5655 15.3604 28.5532 15.4826 28.5287C15.8107 28.46 16.0295 28.2106 16.0272 27.9026C16.0228 27.6632 15.8319 27.4249 15.5992 27.3663C15.4028 27.3166 15.1969 27.3708 15.0557 27.5008C14.8537 27.4852 14.6433 27.3964 14.4658 27.2469C14.2231 27.0426 14.083 26.762 14.0908 26.4963C14.0925 26.431 14.0786 26.3697 14.059 26.3111C14.4335 25.4578 15.0367 24.4791 15.9686 24.2151C16.0997 24.1782 16.208 24.1632 16.3302 24.1632C16.4664 24.1632 16.6204 24.1816 16.8425 24.2089C17.016 24.2296 17.2169 24.2541 17.4619 24.2748C19.0172 24.4081 20.0383 24.2033 20.8603 24.0393C21.3798 23.9355 21.8313 23.8334 22.3185 23.8529C23.0618 23.8629 23.7912 24.0901 24.5467 24.5471C24.7348 24.6604 24.972 24.6475 25.145 24.5142L28.0551 22.2765C28.4507 21.9729 28.9502 21.6386 29.2939 21.7804C29.6449 21.9232 29.7549 22.5276 29.785 23.0097C29.8944 24.7597 29.7058 26.5717 29.2398 28.2966C29.0724 28.3535 28.934 28.483 28.8899 28.6682C28.7722 29.1677 28.5317 29.637 28.1952 30.0248C28.0026 30.2464 28.0266 30.5817 28.2482 30.7737C28.3486 30.8613 28.4725 30.9037 28.5958 30.9037C28.7443 30.9037 28.8922 30.8418 28.9965 30.7207C29.1383 30.5577 29.2616 30.3808 29.3765 30.1989C29.6031 30.7313 29.7895 31.2508 29.9681 31.7569C30.5523 33.4109 31.1048 34.9729 32.9469 36.1091C34.0356 36.7804 35.2923 37.1437 36.6941 37.195L36.8436 39.6637C36.8609 39.945 37.0947 40.1626 37.3732 40.1626L37.4061 40.1615C37.6991 40.1436 37.9217 39.892 37.9039 39.5996L37.7566 37.1698C37.8899 37.1604 38.0216 37.1553 38.1572 37.1408C39.2409 37.027 40.0902 36.7229 40.828 36.3172C41.4407 36.8797 41.9362 37.5817 42.2604 38.3462C42.3463 38.5482 42.5428 38.6698 42.7492 38.6698C42.819 38.6698 42.8893 38.6564 42.9568 38.628C43.2269 38.5136 43.353 38.2011 43.2381 37.9315C42.8904 37.1135 42.3714 36.3634 41.7409 35.734C42.2538 35.3545 42.7259 34.9321 43.2052 34.4985C43.7259 34.0275 44.2593 33.5487 44.8749 33.1045C45.6908 33.6341 46.3381 34.4031 46.7131 35.3027C46.7979 35.5063 46.9949 35.6291 47.203 35.6291C47.2717 35.6291 47.3403 35.6163 47.4073 35.5884C47.6779 35.4757 47.8057 35.1648 47.693 34.8942C47.2973 33.9439 46.6506 33.1135 45.8381 32.4879C46.0061 32.3941 46.1796 32.3032 46.3616 32.2161C48.9196 30.9985 52.3387 30.869 55.5077 31.869C55.7421 31.9433 55.9966 31.8462 56.1232 31.6352C57.4904 29.3507 59.8721 27.5861 62.6572 26.7927C65.7621 25.9071 69.4652 26.123 73.3648 27.4138C73.7699 27.5482 74.174 27.6911 74.5791 27.8345C76.2187 28.416 77.9128 29.017 79.7097 29.017H79.7331C80.8614 29.0131 81.7744 28.7441 82.4457 28.2162C82.848 27.9009 83.1466 27.5086 83.4351 27.1291C83.7643 26.6972 84.0751 26.2893 84.4847 26.08C85.0193 25.8094 85.5551 26.008 85.8274 26.1498C86.4083 26.4534 86.8357 27.027 86.9172 27.6124C87.0963 28.9087 86.117 30.0878 85.1315 30.6352C83.9167 31.3093 82.4362 31.4092 81.1476 31.4187C78.7688 31.4343 76.3648 31.1531 74.0416 30.5811L74.0409 30.5817ZM71.5877 50.5274C72.1792 50.3242 72.7384 50.1317 73.3098 50.0793C73.3277 50.0759 75.0671 49.9353 76.2346 51.2634C76.787 51.8929 77.2379 52.9007 77.1034 53.812C76.715 53.3667 76.2373 52.9738 75.6815 52.6647C74.1531 51.8142 72.263 51.6736 70.6268 52.2886C70.3925 52.3767 70.1637 52.48 69.9354 52.5832C69.7128 52.6842 69.4907 52.7852 69.2608 52.8689C67.8088 53.3951 66.0023 53.2182 63.7362 52.3276C63.6692 52.3014 63.6023 52.274 63.5353 52.2467C64.0141 51.5012 64.4114 50.7373 64.744 49.9616C65.6257 50.4554 67.6269 51.3617 69.9387 50.9895C70.518 50.8963 71.062 50.7088 71.5877 50.5274L71.5877 50.5274ZM15.7748 57.3019C15.7436 57.2322 15.4752 56.6105 15.7464 56.2606C15.8965 56.0687 16.1627 55.9498 16.4718 55.8114C16.6582 55.7283 16.8446 55.644 17.0181 55.5424C17.6822 55.1529 18.0321 54.6005 18.6124 53.6853L18.6855 53.5698C19.166 52.8109 19.6989 51.9638 19.9869 50.8594C20.2648 51.1362 20.5438 51.4113 20.834 51.6769C20.5404 52.7115 20.1961 53.6942 19.8083 54.6026C19.5538 55.1986 19.3072 55.635 18.9283 55.8219C18.7676 55.9017 18.5616 55.943 18.344 55.9865C18.1158 56.0323 17.858 56.0842 17.6057 56.1908C16.9696 56.4597 16.512 57.0429 16.3501 57.7912C16.3401 57.837 16.3362 57.8833 16.3289 57.929C16.1264 57.7973 15.9071 57.5998 15.7748 57.3018L15.7748 57.3019ZM25.9088 19.9748C26.011 19.8984 26.1321 19.8727 26.1823 19.8972C26.2342 19.9218 26.3034 20.015 26.3888 20.1746C26.651 20.6651 26.8268 21.1935 26.9116 21.7443C26.9167 21.7772 26.934 21.804 26.944 21.8347L26.8397 21.871L24.7771 23.457C24.4707 23.2924 24.1649 23.169 23.8591 23.0658L23.993 22.8554L25.4902 20.5038C25.618 20.3018 25.7513 20.092 25.9087 19.9748L25.9088 19.9748Z" fill="black"/>
<path d="M21.4556 29.6271C21.522 29.6271 21.589 29.6238 21.6554 29.6182C21.9472 29.5931 22.1637 29.3364 22.1392 29.044C22.1141 28.7516 21.863 28.5306 21.565 28.5602C21.1152 28.6004 20.6509 28.3928 20.3769 28.0367C20.1035 27.6802 20.0254 27.1768 20.1783 26.7538C20.2776 26.4781 20.1353 26.1735 19.8596 26.0741C19.5851 25.9737 19.2793 26.1165 19.1799 26.3928C18.9031 27.159 19.0387 28.0362 19.5348 28.6823C19.9902 29.2761 20.7123 29.6271 21.4556 29.6271L21.4556 29.6271Z" fill="black"/>
<path d="M20.5914 33.5829C20.6946 33.6822 20.828 33.7325 20.9608 33.7325C21.0997 33.7325 21.2381 33.6778 21.3425 33.5706C21.5462 33.3597 21.5406 33.0238 21.3302 32.8201C20.5322 32.0489 19.7851 31.2096 19.1086 30.3256C18.9306 30.0924 18.5986 30.0494 18.3648 30.2269C18.1321 30.4049 18.0874 30.738 18.266 30.9707C18.973 31.896 19.756 32.7754 20.5913 33.5829L20.5914 33.5829Z" fill="black"/>
<path d="M18.0113 31.1716C17.9455 30.8859 17.6581 30.7056 17.3741 30.7748C17.0884 30.8412 16.9109 31.1264 16.9773 31.4121L17.6765 34.4177C17.7334 34.6626 17.9516 34.8284 18.1927 34.8284L18.3132 34.8144C18.599 34.748 18.777 34.4629 18.71 34.1772L18.0113 31.1716Z" fill="black"/>
</svg>
