<svg width="100" height="80" viewBox="0 0 100 80" fill="none" xmlns="http://www.w3.org/2000/svg">
<path d="M82.5728 31.7842C82.1861 31.1029 81.6682 30.8746 81.3027 30.8026C80.4121 30.6263 79.4969 31.1642 78.8859 31.6447L78.6549 31.8272C77.757 32.5376 76.9819 33.1508 75.9551 33.5392C73.7146 34.3874 71.242 34.2177 69.1738 33.0754C67.6811 32.2512 66.4786 31.0704 65.2057 29.8204C64.8229 29.4443 64.43 29.0643 64.0288 28.6893C64.3809 28.1904 64.7766 27.7362 65.2481 27.3467C66.3988 26.3969 67.8725 25.9321 69.4334 25.4398C71.3301 24.8416 73.2917 24.2233 74.6293 22.6491C74.8681 22.3684 75.0417 22.1396 75.1951 21.9387C75.5054 21.5297 75.6929 21.283 76.1973 20.9097C77.2336 20.143 78.2158 19.9627 79.1666 19.7881C80.2062 19.5972 81.1889 19.4164 81.9099 18.4722C82.5533 17.6301 82.9116 16.2134 82.353 15.1368C81.1878 12.8924 76.7827 13.5024 74.6666 13.7953L74.5979 13.8048C73.4969 13.9565 71.2074 14.2724 68.6202 15.582C68.3027 15.7428 67.9896 15.9141 67.6766 16.0848C66.9266 16.4944 66.2184 16.8806 65.455 17.13C64.2926 17.5095 63.0001 17.5569 61.7513 17.6021L61.4427 17.6133C57.7652 17.7545 53.0108 18.1797 48.8551 20.2321C47.8886 20.7093 46.8758 21.351 45.9131 22.0937C43.5537 21.8727 41.08 22.2929 38.729 23.3169C36.3417 22.7427 34.3522 22.5859 33.0348 22.6384C33.8479 20.3319 35.0192 18.4269 36.5225 16.9654C37.0794 16.4235 37.5811 16.0385 38.0248 15.6981C38.8898 15.034 39.6364 14.4609 40.0582 13.2182C40.3825 12.2628 40.3445 11.4292 40.311 10.6936C40.2697 9.79575 40.2379 9.08592 40.7815 8.24663C40.9667 7.96036 41.152 7.77119 41.3317 7.5887C41.6431 7.27062 41.9656 6.94195 42.157 6.26727C42.4332 5.2935 42.3875 3.81085 41.3495 2.83699C40.6553 2.1852 39.6241 1.87996 38.6575 2.04123C37.2931 2.26779 36.6481 3.29068 35.5788 4.9848C35.1748 5.62599 34.7161 6.35255 34.1224 7.19909L34.0532 7.2973C33.6704 7.84697 32.5069 9.51945 30.9311 11.1573C30.0985 12.0234 29.2955 12.7187 28.2782 13.5993C26.7498 14.9235 24.8468 16.5714 21.7179 19.7366C19.4132 22.068 16.9651 24.8437 17.0851 28.2823C17.1794 31.0127 18.8869 33.592 22.1603 35.948C23.6123 36.9926 25.3468 38.0344 27.1989 38.9749C27.1414 39.2477 27.0879 39.5212 27.0393 39.7957C25.9082 46.1696 26.3992 52.164 28.4238 56.6729C30.0555 60.309 32.7675 63.3113 36.4885 65.6014C35.0515 70.8626 34.0755 75.8409 36.2128 77.2164C37.7536 78.2086 40.9723 77.7616 43.5588 77.4039C44.4696 77.2778 45.2558 77.169 45.8144 77.1439C46.3524 77.1221 47.3121 77.241 48.5243 77.3933C50.0466 77.5853 51.9417 77.8236 54.2576 77.9547C54.6231 77.9759 55.0226 77.9988 55.4306 77.9988C56.5879 77.9988 57.8055 77.8158 58.4467 76.8844C59.3234 75.6104 58.4785 73.8375 58.4422 73.7627C57.8183 72.4786 56.5321 71.664 54.1409 71.0396C51.3189 70.3024 48.2448 70.1177 44.9887 70.4876C45.3162 69.8989 45.6287 69.3035 45.9223 68.7075C48.4708 68.8738 51.3485 68.7025 55.2598 68.472L55.3737 68.4648C62.2007 68.0608 64.102 66.7288 65.1002 65.3386C66.2716 65.53 67.4322 65.823 68.5511 66.212C68.6114 66.2326 68.6728 66.2426 68.733 66.2426C68.9629 66.2426 69.1772 66.0987 69.257 65.8693C69.358 65.5797 69.2046 65.2638 68.9149 65.1634C67.8653 64.7984 66.7794 64.5178 65.6828 64.3174C65.7643 64.1333 65.8357 63.9474 65.8971 63.7599C67.0868 63.6712 68.2894 63.6662 69.4769 63.7533C69.7783 63.77 70.0478 63.5457 70.0701 63.2398C70.0925 62.9335 69.8625 62.6684 69.5567 62.6461C68.4312 62.5641 67.2927 62.5618 66.1627 62.6305C66.3296 61.5345 66.2715 60.4241 66.2157 59.3878C66.1739 58.6115 66.064 56.5842 65.1744 54.4542C65.4574 53.4107 65.8084 52.4871 66.2185 51.7075C66.3575 51.4435 66.6605 50.6461 67.3932 48.7175L67.4217 48.641C67.752 47.7699 67.9708 47.194 67.6365 46.651C67.0372 45.6773 65.2659 46.0188 64.3162 46.2013C64.0874 46.2453 63.848 46.3034 63.6153 46.3525C63.6114 45.8369 63.5936 45.3212 63.5484 44.8068C63.4753 43.9742 63.0779 43.4385 62.487 43.3749C62.2013 43.3431 61.9529 43.4441 61.8056 43.5044C59.0182 44.6433 56.5589 46.4497 54.6303 48.7477C54.2302 48.8107 53.9529 48.7934 53.7196 48.6143C53.0634 48.1093 53.0645 46.9614 53.065 46.5294C53.0673 44.9669 53.7938 43.9949 54.7135 42.7639C55.2151 42.0931 55.7336 41.3989 56.1912 40.5306C56.5277 39.8922 56.8022 39.198 57.0104 38.4659C58.6532 37.3303 60.1114 35.7712 61.189 34.0133C61.5729 34.4134 61.9652 34.8437 62.3815 35.3018C62.6103 35.5535 62.8447 35.8107 63.0869 36.0736C65.54 38.732 68.9206 40.1304 72.3079 40.13C74.4619 40.13 76.6193 39.5641 78.5406 38.3967C79.1321 38.0368 84.2811 34.7924 82.573 31.7834L82.5728 31.7842ZM63.9014 35.3216C63.6609 35.061 63.4276 34.8055 63.2011 34.5555C61.0459 32.186 59.3439 30.3149 56.2725 30.0516C54.9455 29.9383 53.5793 30.2263 52.2156 30.9087C51.9416 31.046 51.8306 31.3792 51.9673 31.6532C52.1051 31.9272 52.4377 32.0388 52.7117 31.9015C53.8897 31.3122 55.0566 31.0611 56.1771 31.1576C57.9049 31.3061 59.1426 32.065 60.373 33.2089C59.5717 34.575 58.5237 35.8172 57.3294 36.8205C57.3942 36.2491 57.4176 35.6737 57.3936 35.0973C57.3813 34.791 57.1051 34.5633 56.8166 34.5661C56.5102 34.5789 56.2719 34.8373 56.2848 35.1437C56.3238 36.0918 56.2267 37.0377 56.0018 37.9584C55.9991 37.9667 55.9929 37.9734 55.9907 37.9818C55.7987 38.7078 55.5348 39.392 55.2072 40.0152C54.7903 40.806 54.2987 41.4645 53.8227 42.1012C52.8623 43.3858 51.9556 44.599 51.9533 46.5304C51.9533 46.6509 51.9555 46.8194 51.965 47.0075C51.9477 47.012 51.9298 47.0092 51.9125 47.0159C50.9254 47.3814 49.921 47.82 49.4383 48.7893C49.3015 49.0633 49.4131 49.3964 49.6883 49.5331C49.7675 49.5728 49.8518 49.5912 49.9349 49.5912C50.1386 49.5912 50.3356 49.4785 50.4321 49.2837C50.7156 48.714 51.3964 48.3981 52.1487 48.113C52.2983 48.6157 52.5594 49.1247 53.0416 49.4958C53.8189 50.094 54.6671 49.8976 55.5638 49.6894C55.964 49.5962 56.3763 49.5002 56.8339 49.4556L56.9684 49.4255C59.6403 48.4612 62.1827 47.744 64.5243 47.2937C66.3981 46.9333 66.6577 47.1821 66.6894 47.2329C66.7229 47.354 66.5265 47.8719 66.3831 48.2502L66.3541 48.3267C65.7235 49.9874 65.3423 50.9897 65.2352 51.1932C64.7614 52.0934 64.363 53.1587 64.0505 54.3595C64.0192 54.4801 64.0293 54.6073 64.0789 54.7217C64.959 56.7317 65.0655 58.7071 65.1057 59.451C65.2034 61.2551 65.3033 63.1207 64.2263 64.6541C63.7748 65.297 63.0276 65.9638 61.267 66.489C61.19 66.436 61.1046 66.3952 61.0047 66.3869C60.5839 66.3517 60.2246 66.2317 59.9657 66.0409C59.6995 65.8444 59.5309 65.5543 59.5259 65.2825C59.5192 64.9756 59.2793 64.7429 58.9595 64.739C58.6526 64.7457 58.4098 64.999 58.416 65.3054C58.4288 65.9237 58.7614 66.5325 59.3066 66.9342H59.3072C58.2307 67.1178 56.9176 67.264 55.3066 67.3595L55.1928 67.3662C51.6381 67.5765 48.9461 67.7361 46.6079 67.6357C47.0264 67.0018 47.3797 66.3277 47.6548 65.6178C47.7653 65.3321 47.6235 65.0107 47.3378 64.8996C47.0515 64.7897 46.7307 64.9309 46.6196 65.2166C46.2714 66.1162 45.7893 66.9555 45.1882 67.7116C45.1614 67.7457 45.1491 67.7847 45.1313 67.8227C45.1162 67.845 45.0972 67.8645 45.0855 67.8891C44.5989 68.903 44.0548 69.9164 43.4695 70.9036C43.3607 71.0878 43.3668 71.3188 43.4863 71.4963C43.6057 71.6737 43.8133 71.7675 44.0292 71.7351C47.5538 71.2044 50.8612 71.3333 53.8591 72.1157C55.9311 72.657 56.9691 73.2758 57.4428 74.2507C57.4489 74.263 58.0349 75.5269 57.5315 76.258C57.0181 77.0035 55.459 76.9165 54.3195 76.85C52.0411 76.7211 50.1678 76.4857 48.6617 76.2959C47.4775 76.1469 46.5897 76.0353 45.9608 76.0353C45.8927 76.0353 45.8269 76.0364 45.7644 76.0392C45.1539 76.0666 44.3436 76.1787 43.4044 76.3088C41.1271 76.6246 38.0065 77.0571 36.8118 76.2876C35.1271 75.2022 36.7554 68.8317 37.5172 66.0443C37.5763 65.9751 37.6243 65.8958 37.6438 65.8004C37.8129 64.9639 38.0479 64.133 38.3419 63.3317C38.4468 63.0438 38.299 62.7251 38.0116 62.6202C37.7248 62.5164 37.405 62.6626 37.2995 62.95C37.1154 63.4533 36.9602 63.9695 36.8207 64.489C33.4267 62.3394 30.9357 59.566 29.4346 56.2223C27.501 51.9131 27.0379 46.1492 28.1305 39.9923C28.1595 39.8294 28.1963 39.6681 28.2287 39.5051L31.0534 40.5665C31.1176 40.5905 31.1834 40.6022 31.2487 40.6022C31.473 40.6022 31.6845 40.4649 31.7682 40.2423C31.8759 39.9555 31.7308 39.6352 31.4435 39.5275L28.2587 38.3305C28.2096 38.2685 28.1516 38.2133 28.0768 38.1759C26.1337 37.2122 24.3113 36.1308 22.8067 35.0486C19.8268 32.9035 18.2742 30.6145 18.1917 28.245C18.0873 25.2473 20.3635 22.6848 22.5047 20.5179C25.6034 17.3829 27.488 15.7506 29.0024 14.4392C30.0403 13.5402 30.8607 12.8298 31.7284 11.9275C33.3645 10.226 34.5665 8.49948 34.9617 7.93191L35.0286 7.83704C35.638 6.96818 36.104 6.22933 36.5152 5.57761C37.5459 3.94419 37.9979 3.27576 38.8378 3.13619C39.4617 3.03407 40.1475 3.23328 40.5878 3.64679C41.2189 4.23886 41.2931 5.23778 41.0872 5.96493C40.9728 6.36727 40.8088 6.53468 40.5364 6.81258C40.3395 7.01404 40.0945 7.26404 39.8478 7.64406C39.1107 8.78246 39.1564 9.7802 39.2005 10.7451C39.2318 11.4448 39.2625 12.105 39.0046 12.8622C38.691 13.7863 38.1849 14.1753 37.3462 14.8186C36.8797 15.1774 36.3501 15.5837 35.7469 16.1702C33.9401 17.9263 32.5824 20.2589 31.7124 23.102C31.6566 23.284 31.6984 23.4821 31.8223 23.6266C31.9462 23.7706 32.1359 23.8425 32.3245 23.813C33.4138 23.6506 35.7224 23.7159 38.646 24.4396C38.7012 24.453 38.7581 24.4558 38.8145 24.4525C38.8948 24.5122 38.9864 24.5591 39.0935 24.568C40.1454 24.6551 41.1644 24.9045 42.1236 25.3102C42.6817 25.5462 43.2224 25.8375 43.7308 26.1757C43.8251 26.2388 43.9317 26.2689 44.0377 26.2689C44.2168 26.2689 44.3932 26.1818 44.4998 26.0217C44.67 25.7666 44.6008 25.4223 44.3452 25.2521C43.7799 24.876 43.1778 24.5518 42.5562 24.289C41.9998 24.0535 41.4239 23.8677 40.8352 23.7276C42.565 23.2086 44.3263 23.0328 46.0149 23.2214C46.045 23.2254 46.074 23.2159 46.1036 23.2142C46.1745 23.2583 46.2526 23.2912 46.3414 23.299C48.0244 23.4525 49.6891 23.8799 51.2492 24.5423C49.7738 24.8208 48.6974 25.4926 48.0449 26.5625C47.8853 26.8242 47.9679 27.1657 48.2296 27.3253C48.4902 27.4849 48.8323 27.4023 48.9919 27.1406C49.6878 26.0005 51.1091 25.4591 53.2073 25.5111C53.2648 25.5301 53.3234 25.5429 53.382 25.5429C53.4339 25.5429 53.4847 25.5346 53.5338 25.5206C53.819 25.5357 54.1114 25.5569 54.42 25.5926C57.7264 25.9754 60.319 26.9838 62.3457 28.674C63.065 29.2739 63.7569 29.9542 64.4271 30.612C65.6972 31.8593 67.0108 33.1495 68.6364 34.0468C70.9902 35.3464 73.8004 35.5395 76.3463 34.5769C77.5338 34.1277 78.4121 33.4329 79.343 32.6969L79.5723 32.5161C80.1683 32.0468 80.7219 31.818 81.0879 31.8911C81.1627 31.9056 81.3903 31.9502 81.6063 32.3314C82.6119 34.1025 79.3173 36.6259 77.9623 37.4485C73.4707 40.1789 67.556 39.2834 63.9014 35.3212L63.9014 35.3216ZM62.3384 44.4891C62.373 44.5505 62.4227 44.6883 62.4416 44.9054C62.4907 45.4673 62.5047 46.0309 62.5019 46.5934C60.6442 47.0359 58.6855 47.6263 56.6547 48.3568C56.5828 48.3646 56.5197 48.3791 56.4499 48.3886C58.0905 46.7352 60.0527 45.4193 62.2239 44.532L62.3384 44.4891ZM61.791 18.7105C63.1168 18.6625 64.4885 18.6123 65.7988 18.1843C66.6593 17.9036 67.4467 17.4739 68.2072 17.0582C68.5108 16.8924 68.8138 16.7273 69.1213 16.5716C71.5414 15.3456 73.7073 15.047 74.7486 14.9036L74.8178 14.8941C76.2397 14.6971 80.5639 14.0983 81.3675 15.6474C81.6973 16.283 81.4534 17.2406 81.0271 17.7987C80.5662 18.4025 79.8948 18.5258 78.9651 18.696C77.9908 18.8746 76.7787 19.0972 75.5365 20.0174C74.9043 20.4856 74.642 20.8305 74.3105 21.2674C74.1682 21.4549 74.0059 21.6687 73.7832 21.9304C72.6532 23.2607 70.9266 23.8054 69.099 24.3812C67.5059 24.884 65.859 25.4036 64.541 26.4912C64.0198 26.9215 63.584 27.417 63.199 27.9482C63.151 27.9075 63.1063 27.8623 63.0578 27.8221C60.8602 25.9884 58.0768 24.8986 54.5494 24.4901C54.1771 24.4472 53.8222 24.4215 53.4779 24.4064C51.6364 23.3584 49.5906 22.647 47.4929 22.3239C48.1135 21.902 48.7396 21.5259 49.3451 21.2268C53.3132 19.2669 57.9171 18.859 61.4841 18.7223L61.791 18.7105Z" fill="#ADC6D4"/>
<path d="M61.5685 59.2429C61.1377 59.6704 60.477 59.8601 59.885 59.7267C59.2929 59.5933 58.7773 59.1385 58.5725 58.5671C58.4687 58.2786 58.15 58.1279 57.8626 58.2329C57.5736 58.3361 57.424 58.6542 57.5278 58.9427C57.8632 59.8757 58.6729 60.5911 59.6411 60.8093C59.8503 60.8561 60.0624 60.8796 60.2745 60.8796C61.0418 60.8796 61.7984 60.5777 62.3497 60.0297C62.5674 59.8143 62.5685 59.4627 62.3531 59.2451C62.1371 59.028 61.7844 59.0269 61.5685 59.2429L61.5685 59.2429Z" fill="#ADC6D4"/>
<path d="M45.1672 39.6514C44.8753 39.7446 44.714 40.0565 44.8067 40.3489C44.8999 40.6402 45.2129 40.8021 45.5042 40.7089C47.3786 40.1101 49.4881 40.215 51.2932 40.9957C51.3646 41.0264 51.4394 41.0414 51.5125 41.0414C51.7274 41.0414 51.9322 40.9164 52.0226 40.7066C52.1442 40.4254 52.0142 40.0989 51.7329 39.9773C49.6867 39.0922 47.2921 38.9734 45.1671 39.6514L45.1672 39.6514Z" fill="#ADC6D4"/>
<path d="M51.09 43.9957C49.792 44.1134 48.0152 44.2741 46.7881 45.3975C46.5615 45.6045 46.5465 45.9555 46.7535 46.1815C46.8629 46.3015 47.0124 46.3617 47.1625 46.3617C47.2965 46.3617 47.431 46.3138 47.537 46.2161C48.4164 45.4114 49.7123 45.2351 51.1899 45.1011C51.4957 45.0732 51.7205 44.8037 51.6926 44.4985C51.6647 44.1932 51.3924 43.9717 51.0899 43.9957H51.09Z" fill="#ADC6D4"/>
<path d="M50.4886 64.6457C50.5751 64.6468 50.6622 64.648 50.7481 64.648C51.9328 64.648 53.1198 64.5302 54.2821 64.2986C54.5824 64.2384 54.7771 63.9465 54.7174 63.6457C54.6577 63.3455 54.3692 63.1508 54.0645 63.2105C52.8949 63.4437 51.6962 63.5553 50.5048 63.5364H50.4964C50.1934 63.5364 49.9456 63.7797 49.9417 64.0832C49.9372 64.3896 50.1822 64.6412 50.4886 64.6457L50.4886 64.6457Z" fill="#ADC6D4"/>
<path d="M50.8843 61.3515C52.0445 61.6573 53.2359 61.8821 54.4267 62.0194L54.4915 62.0233C54.7694 62.0233 55.0093 61.8146 55.0423 61.5317C55.0774 61.2276 54.8592 60.9525 54.5551 60.9173C53.4161 60.7851 52.2767 60.5708 51.1672 60.2784C50.872 60.1986 50.5673 60.3766 50.4892 60.6734C50.4111 60.9703 50.5874 61.2739 50.8843 61.3515L50.8843 61.3515Z" fill="#ADC6D4"/>
</svg>
